<svg xmlns="http://www.w3.org/2000/svg" viewBox="110 275 1225 905" shape-rendering="geometricPrecision" fill-rule="evenodd"><path fill="#000000" d="M 113.672 1179.192 L 209.426 1179.192 L 307.676 909.27 L 441.176 909.27 L 441.176 819.293 L 340.426 819.293 L 441.176 542.516 L 441.176 279.445 Z"/><path fill="#000000" d="M 468.168 279.445 L 468.168 1179.192 L 558.148 1179.192 L 558.148 279.445 Z"/><path fill="#000000" d="M 603.14 1179.192 L 693.121 1179.192 L 693.121 279.445 L 603.14 279.445 Z"/><path fill="#000000" d="M 738.109 1179.192 L 828.094 1179.192 L 828.094 279.445 L 738.109 279.445 Z"/><path fill="#000000" d="M 1081.472 950.828 L 1236.566 524.731 L 1238.433 1179.449 L 1328.414 1179.192 L 1325.851 279.445 L 1230.093 279.445 L 1033.593 819.293 L 855.086 328.887 L 855.086 591.953 L 985.715 950.828 Z"/></svg>
